<svg width="16" height="16" viewBox="0 0 16 16" fill="none" xmlns="http://www.w3.org/2000/svg"><path fill-rule="evenodd" clip-rule="evenodd" d="M8 14.75C11.7279 14.75 14.75 11.7279 14.75 8C14.75 4.27208 11.7279 1.25 8 1.25C4.27208 1.25 1.25 4.27208 1.25 8C1.25 11.7279 4.27208 14.75 8 14.75ZM9.64999 5.64303C9.84525 5.44777 10.1618 5.44777 10.3571 5.64303C10.5524 5.83829 10.5524 6.15487 10.3571 6.35014L8.70718 8.00005L10.3571 9.64997C10.5524 9.84523 10.5524 10.1618 10.3571 10.3571C10.1618 10.5523 9.84525 10.5523 9.64999 10.3571L8.00007 8.70716L6.35016 10.3571C6.15489 10.5523 5.83831 10.5523 5.64305 10.3571C5.44779 10.1618 5.44779 9.84523 5.64305 9.64997L7.29296 8.00005L5.64305 6.35014C5.44779 6.15487 5.44779 5.83829 5.64305 5.64303C5.83831 5.44777 6.15489 5.44777 6.35016 5.64303L8.00007 7.29294L9.64999 5.64303Z" fill="currentColor"></path></svg>
