<svg xmlns="http://www.w3.org/2000/svg" xmlns:xlink="http://www.w3.org/1999/xlink" viewBox="0 0 24 24"  fill="currentColor"><!--[--><path d="M13.62335 5.49835C13.62335 6.3949 12.8966 7.12171 12 7.12171C11.10345 7.12171 10.37665 6.3949 10.37665 5.49835C10.37665 4.6018 11.10345 3.875 12 3.875C12.8966 3.875 13.62335 4.6018 13.62335 5.49835zM13.62345 18.4985C13.62345 19.3951 12.8966 20.12195 12 20.12195C11.10335 20.12195 10.3765 19.3951 10.3765 18.4985C10.3765 17.60185 11.10335 16.875 12 16.875C12.8966 16.875 13.62345 17.60185 13.62345 18.4985zM12 13.62485C12.89745 13.62485 13.62495 12.89735 13.62495 11.99995C13.62495 11.1025 12.89745 10.375 12 10.375C11.10255 10.375 10.37505 11.1025 10.37505 11.99995C10.37505 12.89735 11.10255 13.62485 12 13.62485z" fill="currentColor"></path><!--]--></svg>
