<svg width="16" height="16" viewBox="0 0 16 16" fill="none" xmlns="http://www.w3.org/2000/svg" data-v-fdf052ec=""><path fill-rule="evenodd" clip-rule="evenodd" d="M7.25098 8.75V13.25C7.25098 13.6642 7.58676 14 8.00098 14C8.41519 14 8.75098 13.6642 8.75098 13.25V8.75H13.251C13.6652 8.75 14.001 8.41421 14.001 8C14.001 7.58579 13.6652 7.25 13.251 7.25H8.75098V2.75C8.75098 2.33579 8.41519 2 8.00098 2C7.58676 2 7.25098 2.33579 7.25098 2.75V7.25H2.75098C2.33676 7.25 2.00098 7.58579 2.00098 8C2.00098 8.41421 2.33676 8.75 2.75098 8.75H7.25098Z" fill="currentColor"></path></svg>
