<svg width="16" height="16" viewBox="0 0 16 12" fill="none" xmlns="http://www.w3.org/2000/svg" data-v-b37c19ce=""><path fill-rule="evenodd" clip-rule="evenodd" d="M6.1998 0.299805C5.70275 0.299805 5.2998 0.702744 5.2998 1.1998V11.6998H10.6998V1.1998C10.6998 0.702744 10.2969 0.299805 9.7998 0.299805H6.1998ZM7.83285 7.73306C7.93684 7.67604 8.06274 7.67604 8.16672 7.73306L8.71661 8.03464C8.86889 8.11815 9.05049 7.98958 9.02231 7.81821L8.91179 7.14604C8.89381 7.03668 8.92913 6.92531 9.00684 6.84628L9.48051 6.36465C9.59974 6.24342 9.53133 6.03813 9.36322 6.01265L8.7285 5.91644C8.61426 5.89912 8.51612 5.82611 8.46671 5.72166L8.18808 5.13275C8.11287 4.9738 7.8867 4.9738 7.8115 5.13275L7.53286 5.72166C7.48345 5.82611 7.38531 5.89912 7.27108 5.91644L6.63635 6.01265C6.46824 6.03813 6.39983 6.24342 6.51906 6.36465L6.99273 6.84628C7.07045 6.92531 7.10576 7.03668 7.08778 7.14604L6.97726 7.81821C6.94908 7.98958 7.13068 8.11815 7.28296 8.03464L7.83285 7.73306ZM0.799805 5.39981C0.799805 4.90276 1.20275 4.49982 1.6998 4.49982H4.3998V11.6998H1.69981C1.20275 11.6998 0.799805 11.2969 0.799805 10.7998V5.39981ZM14.2998 6.2998H11.5998V11.6998H14.2998C14.7969 11.6998 15.1998 11.2969 15.1998 10.7998V7.1998C15.1998 6.70274 14.7969 6.2998 14.2998 6.2998Z" fill="currentColor"></path></svg>
