<svg xmlns="http://www.w3.org/2000/svg" xmlns:xlink="http://www.w3.org/1999/xlink" viewBox="0 0 24 24"><path d="M12 3.5C7.30558 3.5 3.5 7.30558 3.5 12C3.5 16.6944 7.30558 20.5 12 20.5C16.6944 20.5 20.5 16.6944 20.5 12C20.5 7.30558 16.6944 3.5 12 3.5zM2 12C2 6.47715 6.47715 2 12 2C17.52285 2 22 6.47715 22 12C22 17.52285 17.52285 22 12 22C6.47715 22 2 17.52285 2 12z" fill="currentColor"></path><path d="M12 7.125C12.4142 7.125 12.75 7.46079 12.75 7.875L12.75 12.75C12.75 13.1642 12.4142 13.5 12 13.5C11.5858 13.5 11.25 13.1642 11.25 12.75L11.25 7.875C11.25 7.46079 11.5858 7.125 12 7.125z" fill="currentColor"></path><path d="M12 14.625C12.4142 14.625 12.75 14.9608 12.75 15.375L12.75 15.75C12.75 16.1642 12.4142 16.5 12 16.5C11.5858 16.5 11.25 16.1642 11.25 15.75L11.25 15.375C11.25 14.9608 11.5858 14.625 12 14.625z" fill="currentColor"></path></svg>
